<?xml version="1.0" standalone="no"?>
<!DOCTYPE svg PUBLIC "-//W3C//DTD SVG 20010904//EN"
 "http://www.w3.org/TR/2001/REC-SVG-20010904/DTD/svg10.dtd">
<svg version="1.0" xmlns="http://www.w3.org/2000/svg"
 width="752.000000pt" height="752.000000pt" viewBox="0 0 752.000000 752.000000"
 preserveAspectRatio="xMidYMid meet">
<metadata>
Created by potrace 1.14, written by Peter Selinger 2001-2017
</metadata>
<g transform="translate(0.000000,752.000000) scale(0.100000,-0.100000)"
fill="#000000" stroke="none">
<path d="M3625 7449 c-275 -43 -506 -230 -576 -467 -11 -36 -16 -43 -33 -39
-149 36 -175 39 -266 33 -52 -3 -108 -9 -125 -14 -28 -8 -35 -4 -133 89 -92
89 -114 105 -225 159 -150 73 -224 90 -395 90 -273 0 -479 -91 -670 -295 -90
-97 -144 -189 -191 -331 -60 -178 -61 -345 -5 -524 13 -41 20 -77 16 -81 -4
-3 -45 -35 -92 -70 -182 -136 -376 -351 -476 -525 -66 -116 -120 -243 -156
-368 -59 -205 -58 -173 -58 -1585 0 -756 4 -1320 9 -1355 6 -34 15 -97 22
-141 56 -374 357 -819 718 -1065 93 -62 304 -164 426 -204 230 -76 55 -69
2080 -75 l1820 -6 150 -66 c83 -37 254 -112 380 -167 316 -137 519 -226 725
-317 155 -68 180 -76 220 -72 33 4 51 13 72 36 l28 31 1 408 c0 224 0 498 -1
610 l-1 203 49 67 c100 138 165 268 224 445 33 101 44 154 58 276 14 125 14
2693 0 2795 -56 396 -293 788 -639 1056 -46 36 -95 74 -108 85 l-23 20 21 65
c32 99 37 303 11 432 -37 180 -124 340 -253 467 -85 85 -156 133 -269 183
-129 56 -215 71 -389 66 -125 -4 -158 -9 -231 -33 -161 -52 -258 -112 -391
-242 l-66 -65 -77 13 c-94 15 -209 7 -296 -20 -36 -12 -68 -21 -72 -21 -3 0
-14 24 -23 53 -54 166 -184 321 -326 390 -138 68 -324 98 -464 76z"/>
</g>
</svg>
